<svg width="62" height="84" viewBox="0 0 62 84" fill="none" xmlns="http://www.w3.org/2000/svg">
<g id="Layer_1-2">
<g id="Group">
<path id="Vector" d="M0 0L0.0544815 82.1959V82.8246C0.0544815 83.4806 0.599297 84 1.28032 84C1.96134 84 2.50615 83.4806 2.50615 82.8246C2.50615 82.1686 3.05097 81.6492 3.73199 81.6492C4.41301 81.6492 4.95782 82.1686 4.95782 82.8246C4.95782 83.4806 5.50264 84 6.18366 84C6.86467 84 7.40949 83.4806 7.40949 82.8246C7.40949 82.1686 7.95431 81.6492 8.63533 81.6492C9.31634 81.6492 9.86116 82.1686 9.86116 82.8246C9.86116 83.4806 10.406 84 11.087 84C11.768 84 12.3128 83.4806 12.3128 82.8246C12.3128 82.1686 12.8576 81.6492 13.5387 81.6492C14.2197 81.6492 14.7645 82.1686 14.7645 82.8246C14.7645 83.4806 15.3093 84 15.9903 84C16.6714 84 17.2162 83.4806 17.2162 82.8246C17.2162 82.1686 17.761 81.6492 18.442 81.6492C19.123 81.6492 19.6678 82.1686 19.6678 82.8246C19.6678 83.4806 20.2127 84 20.8937 84C21.5747 84 22.1195 83.4806 22.1195 82.8246C22.1195 82.1686 22.6643 81.6492 23.3453 81.6492C24.0264 81.6492 24.5712 82.1686 24.5712 82.8246C24.5712 83.4806 25.116 84 25.797 84C26.478 84 27.0228 83.4806 27.0228 82.8246C27.0228 82.1686 27.5677 81.6492 28.2487 81.6492C28.9297 81.6492 29.4745 82.1686 29.4745 82.8246C29.4745 83.4806 30.0193 84 30.7004 84C31.3814 84 31.9262 83.4806 31.9262 82.8246C31.9262 82.1686 32.471 81.6492 33.152 81.6492C33.833 81.6492 34.3779 82.1686 34.3779 82.8246C34.3779 83.4806 34.9227 84 35.6037 84C36.2847 84 36.8295 83.4806 36.8295 82.8246C36.8295 82.1686 37.3743 81.6492 38.0554 81.6492C38.7364 81.6492 39.2812 82.1686 39.2812 82.8246C39.2812 83.4806 39.826 84 40.507 84C41.188 84 41.7329 83.4806 41.7329 82.8246C41.7329 82.1686 42.2777 81.6492 42.9587 81.6492C43.6397 81.6492 44.1845 82.1686 44.1845 82.8246C44.1845 83.4806 44.7293 84 45.4104 84C46.0914 84 46.6362 83.4806 46.6362 82.8246C46.6362 82.1686 47.181 81.6492 47.862 81.6492C48.5431 81.6492 49.0879 82.1686 49.0879 82.8246C49.0879 83.4806 49.6327 84 50.3137 84C50.9947 84 51.5395 83.4806 51.5395 82.8246C51.5395 82.1686 52.0844 81.6492 52.7654 81.6492C53.4464 81.6492 53.9912 82.1686 53.9912 82.8246C53.9912 83.4806 54.536 84 55.217 84C55.8981 84 56.4429 83.4806 56.4429 82.8246C56.4429 82.1686 56.9877 81.6492 57.6687 81.6492C58.3497 81.6492 58.8946 82.1686 58.8946 82.8246C58.8946 83.4806 59.4394 84 60.1204 84C60.8014 84 61.3462 83.4806 61.3462 82.8246V0H0Z" fill="#FBC70D"/>
<path id="Vector_2" d="M29.2294 19.2441V39.9366H26.4508V24.6564L24.6802 39.9366H21.9833L20.1854 24.5198V39.9366H17.7338V19.2441H22.1195C22.2557 20.4742 22.4192 21.9503 22.5826 23.6451L23.5633 33.6496L25.0071 19.2441H29.2839H29.2294Z" fill="white"/>
<path id="Vector_3" d="M53.3647 19.2715V22.2236H51.4033V40.0186H48.2979V22.1963H46.3365V19.2715H53.3647Z" fill="white"/>
<path id="Vector_4" d="M36.312 19.2441L38.1371 39.9366H34.8955L34.6231 34.497H33.0976L32.689 39.9366H29.8832L32.2804 19.2441H36.2848H36.312ZM34.4596 31.3535C34.2962 28.8933 34.16 25.8592 33.9965 22.251C33.6969 26.4059 33.5062 29.4127 33.4245 31.3535H34.4596Z" fill="white"/>
<path id="Vector_5" d="M40.0166 44.1738V47.126H38.0553V64.921H34.9499V47.0987H32.9885V44.1738H40.0166Z" fill="white"/>
<path id="Vector_6" d="M48.5975 64.839V44.1191H51.703V61.6408H54.4271V64.8663H48.6248L48.5975 64.839Z" fill="white"/>
<path id="Vector_7" d="M46.2276 44.1738L48.0799 64.8663H44.7838L44.5114 59.4267H42.9859L42.5773 64.8663H39.7443L42.1687 44.1738H46.2003H46.2276ZM44.348 56.2832C44.1845 53.823 44.0483 50.7889 43.8849 47.1807C43.5852 51.3356 43.3945 54.3424 43.3128 56.2832H44.348Z" fill="white"/>
<path id="Vector_8" d="M45.9007 31.1075C45.7373 28.7567 43.667 28.7567 43.667 28.7567C46.0369 28.2373 45.9552 25.6678 45.9552 25.6678V22.415C45.7373 19.9822 44.1845 19.5722 44.1845 19.5722C43.6397 19.3808 42.5773 19.2715 40.9974 19.2715H38.6547V39.964H41.8146V30.3968C41.8146 30.3968 42.768 30.1508 42.877 31.9002C42.9859 33.6223 42.8225 37.3672 42.877 38.4879C42.9315 39.6359 43.0132 39.6633 43.1766 39.964H46.2004C45.7373 38.7612 46.0369 33.4583 45.8735 31.1075M42.8225 22.989V26.5426C42.7953 27.8546 41.8418 27.5539 41.8418 27.5539V21.9776C42.877 21.8956 42.8225 23.0164 42.8225 23.0164" fill="white"/>
<path id="Vector_9" d="M16.9438 56.0645C16.7804 53.7137 14.7101 53.7137 14.7101 53.7137C17.08 53.1943 16.9983 50.6249 16.9983 50.6249V47.372C16.7804 44.9392 15.2276 44.5292 15.2276 44.5292C14.6828 44.3379 13.6204 44.2285 12.0405 44.2285H9.69775V64.921H12.8577V55.3538C12.8577 55.3538 13.8111 55.1078 13.9201 56.8572C14.029 58.5793 13.8656 62.3242 13.9201 63.4449C13.9746 64.593 14.0563 64.6203 14.2197 64.921H17.2434C16.7804 63.7183 17.08 58.4153 16.9166 56.0645M13.8656 47.9461V51.4996C13.8384 52.8117 12.8849 52.511 12.8849 52.511V46.9347C13.9201 46.8527 13.8656 47.9734 13.8656 47.9734" fill="white"/>
<path id="Vector_10" d="M23.5088 64.8116V61.7228H20.8392V54.7524H23.4543V51.8002H20.9209V46.9893H23.5088V44.1465H17.7338V64.8663L23.5088 64.8116Z" fill="white"/>
<path id="Vector_11" d="M26.8322 64.8936L26.696 48.7387L27.5677 55.8185L28.7935 64.921H32.4983V44.1465H30.0739L30.1828 58.962C30.1283 57.6226 29.5018 51.3902 29.5018 51.3902L28.5756 44.1465H24.326V64.921H26.8322V64.8936Z" fill="white"/>
<path id="Vector_12" d="M13.6476 26.4331H16.7531V22.7702C16.7531 22.7702 16.8348 18.8066 13.1845 18.8066C9.53425 18.8066 9.58873 22.6882 9.58873 24.1643C9.58873 25.6404 9.47977 27.1711 10.8963 29.0845C12.3128 30.998 13.6476 32.6927 13.6748 33.8955C13.6748 35.0982 13.6748 36.4376 13.6748 36.4376C13.6748 36.4376 13.7838 37.3123 13.1845 37.3123C13.1845 37.3123 12.6942 37.449 12.6942 36.383V32.1734H9.58873V36.7383C9.58873 36.7383 9.64321 40.5652 12.9393 40.5105C16.2627 40.4558 16.7531 38.105 16.8075 36.2189V33.1848C16.8075 33.1848 16.8075 31.0527 15.2276 29.3032C13.6476 27.5538 12.7214 25.777 12.6669 25.0117C12.6125 24.2463 12.6669 22.6882 12.6669 22.6882C12.6669 22.6882 12.7214 21.8135 13.2118 21.8135C13.7021 21.8135 13.7021 22.6335 13.7021 22.9889C13.7021 23.3169 13.6476 26.4877 13.6476 26.4877" fill="white"/>
</g>
</g>
</svg>
